<?xml version="1.0" encoding="UTF-8" standalone="no"?>
<!DOCTYPE svg PUBLIC "-//W3C//DTD SVG 1.1//EN" "http://www.w3.org/Graphics/SVG/1.1/DTD/svg11.dtd">
<svg width="100%" height="100%" viewBox="0 0 2260 860" version="1.1" xmlns="http://www.w3.org/2000/svg" xmlns:xlink="http://www.w3.org/1999/xlink" xml:space="preserve" xmlns:serif="http://www.serif.com/" style="fill-rule:evenodd;clip-rule:evenodd;stroke-linecap:square;stroke-miterlimit:1.5;">
    <rect x="0" y="0" width="2260" height="860" style="fill:url(#_Radial1);"/>
    <g>
        <g transform="matrix(-1.03539e-16,0.58763,-0.581692,-1.11403e-16,1175.29,-42.3562)">
            <circle cx="1222.33" cy="592.706" r="106.127" style="fill:rgb(255,2,50);"/>
        </g>
        <g transform="matrix(0.833401,0,0,0.843986,916.337,-83.2391)">
            <circle cx="614.644" cy="568.798" r="92.135" style="fill:rgb(255,2,50);"/>
        </g>
        <g transform="matrix(3.45131e-17,-0.58763,0.547498,3.49514e-17,1113.85,1163.27)">
            <circle cx="1638.5" cy="675.303" r="86.601" style="fill:rgb(255,2,50);"/>
        </g>
        <g transform="matrix(0.617526,0,0,0.865738,359.2,-19.7598)">
            <rect x="1066.77" y="200.882" width="126.686" height="123.26" style="fill:rgb(31,152,255);"/>
        </g>
        <g transform="matrix(0.961995,0,0,0.602095,50.1576,107.392)">
            <rect x="1066.77" y="200.882" width="126.686" height="123.26" style="fill:rgb(31,152,255);"/>
        </g>
        <g transform="matrix(-1.58278e-16,0.898297,-0.545428,-1.04458e-16,1150.71,-305.368)">
            <rect x="733.498" y="660.933" width="160.398" height="136.928" style="fill:rgb(255,107,24);"/>
        </g>
        <g id="Construccion" transform="matrix(0.563641,0,0,0.5708,432.559,72.1015)">
            <g transform="matrix(6.12323e-17,-1.02948,0.97136,6.12323e-17,1208.73,1964.2)">
                <rect x="1334.73" y="339.898" width="141.082" height="6.354" style="fill:rgb(232,232,232);stroke:white;stroke-width:22.01px;"/>
            </g>
            <rect x="965.978" y="293.181" width="11.042" height="74.842" style="fill:rgb(232,232,232);stroke:white;stroke-width:22.04px;"/>
            <rect x="824.691" y="359.186" width="152.328" height="8.837" style="fill:rgb(232,232,232);stroke:white;stroke-width:22.04px;"/>
            <rect x="965.978" y="293.181" width="58.823" height="6.673" style="fill:rgb(232,232,232);stroke:white;stroke-width:22.04px;"/>
            <g transform="matrix(0.378623,0,0,1.12964,722.723,-17.3841)">
                <rect x="1163.1" y="134.091" width="71.301" height="127.422" style="fill:white;stroke:white;stroke-width:26.03px;"/>
            </g>
            <rect x="1019.58" y="134.091" width="19.623" height="119.551" style="fill:white;stroke:white;stroke-width:22.04px;"/>
            <rect x="1019.58" y="134.091" width="170.51" height="19.475" style="fill:rgb(232,232,232);stroke:white;stroke-width:22.04px;"/>
            <g transform="matrix(1.36824,0,0,1,-356.428,0)">
                <rect x="967.934" y="243.266" width="51.65" height="10.375" style="fill:rgb(232,232,232);stroke:white;stroke-width:18.42px;"/>
            </g>
            <rect x="831.5" y="227.723" width="21.221" height="98.664" style="fill:rgb(232,232,232);stroke:white;stroke-width:22.04px;"/>
            <rect x="965.978" y="227.723" width="11.042" height="25.918" style="fill:rgb(232,232,232);stroke:white;stroke-width:22.04px;"/>
            <rect x="831.5" y="227.723" width="145.52" height="9.317" style="fill:rgb(232,232,232);stroke:white;stroke-width:22.04px;"/>
            <rect x="1017.85" y="293.181" width="6.956" height="41.176" style="fill:rgb(232,232,232);stroke:white;stroke-width:22.04px;"/>
            <g transform="matrix(1.05802,0,0,1,-66.4194,0)">
                <rect x="1024.8" y="327.729" width="119.882" height="6.628" style="fill:rgb(232,232,232);stroke:white;stroke-width:21.41px;"/>
            </g>
            <rect x="1137.56" y="327.729" width="7.123" height="79.466" style="fill:rgb(232,232,232);stroke:white;stroke-width:22.04px;"/>
            <g transform="matrix(1.99177,0,0,1,-1128.2,0)">
                <rect x="1137.56" y="400.26" width="98.992" height="6.935" style="fill:rgb(232,232,232);stroke:white;stroke-width:14.04px;"/>
            </g>
            <g transform="matrix(1,0,0,1,0,84.4161)">
                <rect x="1334.73" y="310.279" width="12.785" height="96.916" style="fill:rgb(232,232,232);stroke:white;stroke-width:22.04px;"/>
            </g>
            <g transform="matrix(5.63063e-17,-0.946665,1.11997,7.06004e-17,987.149,1774.32)">
                <rect x="1334.73" y="310.279" width="12.785" height="96.916" style="fill:rgb(232,232,232);stroke:white;stroke-width:21.27px;"/>
            </g>
            <rect x="1163.1" y="265.329" width="160.789" height="12.703" style="fill:rgb(232,232,232);stroke:white;stroke-width:22.04px;"/>
            <g transform="matrix(2.25485,0,0,1,-1636.01,-7.10543e-15)">
                <rect x="1303.75" y="203.791" width="20.137" height="91.591" style="fill:white;stroke:white;stroke-width:12.69px;"/>
            </g>
            <g transform="matrix(1.20447,0,0,1,-266.574,0)">
                <rect x="1303.75" y="203.791" width="201.83" height="9.281" style="fill:rgb(232,232,232);stroke:white;stroke-width:19.93px;"/>
            </g>
            <g transform="matrix(1.50197,0,0,1,-272.46,0)">
                <rect x="542.784" y="220.846" width="288.716" height="10.699" style="fill:rgb(232,232,232);stroke:white;stroke-width:17.31px;"/>
            </g>
            <g transform="matrix(1,0,0,0.839974,0,35.3411)">
                <rect x="542.784" y="220.846" width="15.918" height="240.769" style="fill:rgb(232,232,232);stroke:white;stroke-width:23.89px;"/>
            </g>
            <g transform="matrix(-1.83697e-16,1.02948,-0.97136,-1.83697e-16,1275.34,-200.521)">
                <rect x="542.784" y="477.362" width="15.918" height="68.592" style="fill:rgb(232,232,232);stroke:white;stroke-width:22.01px;"/>
            </g>
            <rect x="512.178" y="413.155" width="46.524" height="9.93" style="fill:rgb(232,232,232);stroke:white;stroke-width:22.04px;"/>
            <g transform="matrix(-1.83697e-16,1.02948,-0.97136,-1.83697e-16,908.416,-61.9501)">
                <rect x="457.213" y="477.362" width="101.489" height="11.973" style="fill:rgb(232,232,232);stroke:white;stroke-width:22.01px;"/>
            </g>
            <rect x="512.178" y="372.249" width="10.33" height="50.836" style="fill:rgb(232,232,232);stroke:white;stroke-width:22.04px;"/>
            <g transform="matrix(-1.83697e-16,1.02948,-0.97136,-1.83697e-16,1275.34,-200.521)">
                <rect x="542.784" y="537.515" width="48.173" height="8.439" style="fill:rgb(232,232,232);stroke:white;stroke-width:22.01px;"/>
            </g>
            <g transform="matrix(-1.83697e-16,1.02948,-0.97136,-1.83697e-16,1275.34,-200.521)">
                <rect x="581.629" y="537.515" width="9.328" height="126.887" style="fill:rgb(232,232,232);stroke:white;stroke-width:22.01px;"/>
            </g>
            <g transform="matrix(1.46853e-16,-2.469,1.09994,6.9338e-17,144.92,1916.3)">
                <rect x="496.23" y="659.48" width="94.727" height="9.51" style="fill:rgb(232,232,232);stroke:white;stroke-width:11.48px;"/>
            </g>
            <g transform="matrix(-1,0,0,1,2489.5,28.124)">
                <rect x="496.23" y="659.48" width="94.727" height="9.51" style="fill:rgb(232,232,232);stroke:white;stroke-width:22.04px;"/>
            </g>
            <rect x="496.23" y="664.234" width="11.727" height="81.249" style="fill:rgb(232,232,232);stroke:white;stroke-width:22.04px;"/>
            <g transform="matrix(-1,0,0,1,2489.5,28.124)">
                <rect x="496.23" y="664.234" width="11.727" height="81.249" style="fill:rgb(232,232,232);stroke:white;stroke-width:22.04px;"/>
            </g>
            <g transform="matrix(0.556442,0,0,3.08847,220.107,-1541.74)">
                <rect x="496.23" y="738.218" width="252.248" height="7.266" style="fill:white;stroke:white;stroke-width:9.87px;"/>
            </g>
            <g transform="matrix(-0.0428901,0,0,34.7745,2014.55,-24904.8)">
                <rect x="496.23" y="738.218" width="252.248" height="7.266" style="fill:rgb(232,232,232);stroke:white;stroke-width:0.89px;"/>
            </g>
            <g transform="matrix(-1.83697e-16,1.02948,-0.97136,-1.83697e-16,1275.34,-200.521)">
                <rect x="738.539" y="738.218" width="9.939" height="39.282" style="fill:rgb(232,232,232);stroke:white;stroke-width:22.01px;"/>
            </g>
            <g transform="matrix(1.83697e-16,1.02948,0.97136,-1.83697e-16,1197.76,-168.177)">
                <rect x="738.539" y="738.218" width="9.939" height="39.282" style="fill:rgb(232,232,232);stroke:white;stroke-width:22.01px;"/>
            </g>
            <g transform="matrix(1.60995e-16,0.902259,0.692856,-1.31028e-16,1426.59,-85.3073)">
                <rect x="684.535" y="762.775" width="78.465" height="20.318" style="fill:rgb(232,232,232);stroke:white;stroke-width:27.35px;"/>
            </g>
            <g transform="matrix(-1.83697e-16,1.02948,-0.97136,-1.83697e-16,1275.34,-200.521)">
                <rect x="684.535" y="762.775" width="8.461" height="97.225" style="fill:rgb(232,232,232);stroke:white;stroke-width:22.01px;"/>
            </g>
            <g transform="matrix(1.83697e-16,1.02948,0.97136,-1.83697e-16,1214.16,-172.397)">
                <rect x="684.535" y="762.775" width="8.461" height="97.225" style="fill:rgb(232,232,232);stroke:white;stroke-width:22.01px;"/>
            </g>
            <g transform="matrix(-4.41987e-16,2.47701,-0.976435,-1.84657e-16,1254.03,-1523.76)">
                <rect x="819.234" y="762.775" width="36.082" height="14.725" style="fill:rgb(232,232,232);stroke:white;stroke-width:11.65px;"/>
            </g>
            <g transform="matrix(-1.83697e-16,1.02948,-0.97136,-1.83697e-16,1275.34,-200.521)">
                <rect x="837.275" y="770.137" width="6.506" height="105.024" style="fill:rgb(232,232,232);stroke:white;stroke-width:22.01px;"/>
            </g>
            <g transform="matrix(-1.83697e-16,1.02948,-0.97136,-1.83697e-16,1275.34,-200.521)">
                <rect x="843.781" y="783.093" width="76.166" height="6.092" style="fill:rgb(232,232,232);stroke:white;stroke-width:22.01px;"/>
            </g>
            <g transform="matrix(-1.83697e-16,1.02948,-0.97136,-1.83697e-16,1275.34,-200.521)">
                <rect x="914.527" y="752.892" width="5.42" height="36.293" style="fill:rgb(232,232,232);stroke:white;stroke-width:22.01px;"/>
            </g>
            <g transform="matrix(1.83697e-16,1.02948,0.97136,-1.83697e-16,1214.16,-172.397)">
                <rect x="914.527" y="752.892" width="5.42" height="36.293" style="fill:rgb(232,232,232);stroke:white;stroke-width:22.01px;"/>
            </g>
            <g transform="matrix(-1.83697e-16,1.02948,-0.97136,-1.83697e-16,1237.08,-200.521)">
                <rect x="914.527" y="752.892" width="283.697" height="9.883" style="fill:rgb(232,232,232);stroke:white;stroke-width:22.01px;"/>
            </g>
            <g transform="matrix(-2.60421e-16,1.45946,-1.37706,-2.60421e-16,1546.53,-712.76)">
                <rect x="1191.31" y="668.454" width="6.912" height="94.32" style="fill:rgb(232,232,232);stroke:white;stroke-width:15.53px;"/>
            </g>
            <g transform="matrix(-1.83697e-16,1.02948,-0.97136,-1.83697e-16,1275.34,-200.521)">
                <rect x="1191.31" y="668.454" width="24.727" height="7.643" style="fill:rgb(232,232,232);stroke:white;stroke-width:22.01px;"/>
            </g>
            <g transform="matrix(6.12323e-17,-1.02948,0.97136,6.12323e-17,1208.73,1911.64)">
                <rect x="1207.68" y="613.864" width="8.355" height="62.232" style="fill:rgb(232,232,232);stroke:white;stroke-width:22.01px;"/>
            </g>
            <g transform="matrix(6.12323e-17,-1.02948,0.97136,6.12323e-17,1208.73,1911.64)">
                <rect x="1207.68" y="613.864" width="18.439" height="26.998" style="fill:rgb(232,232,232);stroke:white;stroke-width:22.01px;"/>
            </g>
            <g transform="matrix(6.12323e-17,-1.02948,0.97136,6.12323e-17,1208.73,1911.64)">
                <rect x="1226.12" y="634.488" width="179.443" height="6.375" style="fill:rgb(232,232,232);stroke:white;stroke-width:22.01px;"/>
            </g>
            <g transform="matrix(-1.83697e-16,0.956951,-0.97136,-1.70754e-16,1275.34,-133.904)">
                <rect x="617.725" y="657.583" width="300.713" height="10.871" style="fill:rgb(232,232,232);stroke:white;stroke-width:22.86px;"/>
            </g>
            <g transform="matrix(-8.57921e-17,0.4808,-0.97136,-1.83697e-16,1275.34,160.451)">
                <rect x="617.725" y="537.95" width="18.801" height="130.504" style="fill:rgb(232,232,232);stroke:white;stroke-width:28.86px;"/>
            </g>
            <g transform="matrix(-1.83697e-16,0.956951,-0.97136,-1.70754e-16,1275.34,-133.904)">
                <rect x="617.725" y="537.95" width="213.775" height="7.363" style="fill:rgb(232,232,232);stroke:white;stroke-width:22.86px;"/>
            </g>
            <g transform="matrix(-1.83697e-16,1.02948,-0.97136,-1.83697e-16,1275.34,-200.521)">
                <rect x="824.25" y="510.677" width="7.25" height="34.637" style="fill:rgb(232,232,232);stroke:white;stroke-width:22.01px;"/>
            </g>
            <g transform="matrix(1.83697e-16,1.02948,0.97136,-1.83697e-16,1214.16,-172.397)">
                <rect x="824.25" y="510.677" width="7.25" height="34.637" style="fill:rgb(232,232,232);stroke:white;stroke-width:22.01px;"/>
            </g>
            <g transform="matrix(-1.83697e-16,1.02948,-0.97136,-1.83697e-16,1275.34,-200.521)">
                <rect x="824.25" y="510.677" width="137.201" height="9.002" style="fill:rgb(232,232,232);stroke:white;stroke-width:22.01px;"/>
            </g>
            <g transform="matrix(1.83697e-16,1.02948,0.97136,-1.83697e-16,1214.16,-172.397)">
                <rect x="824.25" y="510.677" width="137.201" height="9.002" style="fill:rgb(232,232,232);stroke:white;stroke-width:22.01px;"/>
            </g>
            <g transform="matrix(-1.83697e-16,1.02948,-0.97136,-1.83697e-16,1275.34,-200.521)">
                <rect x="956.25" y="510.677" width="5.201" height="117.834" style="fill:rgb(232,232,232);stroke:white;stroke-width:22.01px;"/>
            </g>
            <g transform="matrix(1.83697e-16,1.02948,0.97136,-1.83697e-16,1214.16,-172.397)">
                <rect x="956.25" y="510.677" width="5.201" height="117.834" style="fill:rgb(232,232,232);stroke:white;stroke-width:22.01px;"/>
            </g>
            <g transform="matrix(-1.83697e-16,1.02948,-0.97136,-1.83697e-16,1275.34,-200.521)">
                <rect x="956.25" y="564.407" width="55.643" height="64.104" style="fill:rgb(232,232,232);stroke:white;stroke-width:22.01px;"/>
            </g>
            <g transform="matrix(1.83697e-16,1.02948,0.97136,-1.83697e-16,1214.16,-172.397)">
                <rect x="956.25" y="564.407" width="55.643" height="64.104" style="fill:rgb(232,232,232);stroke:white;stroke-width:22.01px;"/>
            </g>
            <g transform="matrix(-1.83697e-16,1.02948,-0.97136,-1.83697e-16,1275.34,-200.521)">
                <rect x="956.25" y="618.804" width="122.291" height="9.707" style="fill:rgb(232,232,232);stroke:white;stroke-width:22.01px;"/>
            </g>
            <g transform="matrix(1.83697e-16,1.02948,0.97136,-1.83697e-16,1214.16,-172.397)">
                <rect x="956.25" y="618.804" width="122.291" height="9.707" style="fill:rgb(232,232,232);stroke:white;stroke-width:22.01px;"/>
            </g>
            <g transform="matrix(-1.83697e-16,1.02948,-0.97136,-1.83697e-16,1275.34,-200.521)">
                <rect x="1061.58" y="596.459" width="16.961" height="32.052" style="fill:rgb(232,232,232);stroke:white;stroke-width:22.01px;"/>
            </g>
            <g transform="matrix(1.83697e-16,1.02948,0.97136,-1.83697e-16,1214.16,-172.397)">
                <rect x="1061.58" y="596.459" width="16.961" height="32.052" style="fill:rgb(232,232,232);stroke:white;stroke-width:22.01px;"/>
            </g>
            <g transform="matrix(-1.83697e-16,1.02948,-0.97136,-1.83697e-16,1275.34,-200.521)">
                <rect x="1061.58" y="596.459" width="16.961" height="81.937" style="fill:rgb(232,232,232);stroke:white;stroke-width:22.01px;"/>
            </g>
            <g transform="matrix(1.83697e-16,1.02948,0.97136,-1.83697e-16,1214.16,-172.397)">
                <rect x="1061.58" y="596.459" width="16.961" height="81.937" style="fill:rgb(232,232,232);stroke:white;stroke-width:22.01px;"/>
            </g>
            <g transform="matrix(-1.83697e-16,1.02948,-0.97136,-1.83697e-16,1275.34,-200.521)">
                <rect x="1061.58" y="672.454" width="56.635" height="5.941" style="fill:rgb(232,232,232);stroke:white;stroke-width:22.01px;"/>
            </g>
            <g transform="matrix(-1.83697e-16,1.02948,-0.97136,-1.83697e-16,1275.34,-200.521)">
                <rect x="1106.44" y="675.425" width="11.774" height="44.434" style="fill:rgb(232,232,232);stroke:white;stroke-width:22.01px;"/>
            </g>
            <g transform="matrix(-1.83697e-16,1.02948,-0.97136,-1.83697e-16,1275.34,-200.521)">
                <rect x="912.771" y="711.241" width="205.443" height="8.617" style="fill:rgb(232,232,232);stroke:white;stroke-width:22.01px;"/>
            </g>
            <g transform="matrix(-1.83697e-16,1.02948,-0.97136,-1.83697e-16,1275.34,-200.521)">
                <rect x="912.771" y="659.921" width="6.971" height="59.938" style="fill:rgb(232,232,232);stroke:white;stroke-width:22.01px;"/>
            </g>
            <g transform="matrix(1.83697e-16,1.02948,0.97136,-1.83697e-16,1214.16,-172.397)">
                <rect x="912.771" y="659.921" width="6.971" height="59.938" style="fill:rgb(232,232,232);stroke:white;stroke-width:22.01px;"/>
            </g>
            <rect x="1537.58" y="203.791" width="9.265" height="141.429" style="fill:rgb(232,232,232);stroke:white;stroke-width:22.04px;"/>
            <g transform="matrix(6.12323e-17,-1.02948,0.97136,6.12323e-17,1208.73,1911.64)">
                <rect x="1505.66" y="338.048" width="41.189" height="7.172" style="fill:rgb(232,232,232);stroke:white;stroke-width:22.01px;"/>
            </g>
            <g transform="matrix(6.12323e-17,-1.02948,0.97136,6.12323e-17,1208.73,1911.64)">
                <rect x="1505.66" y="338.048" width="8.053" height="125.004" style="fill:rgb(232,232,232);stroke:white;stroke-width:22.01px;"/>
            </g>
            <g transform="matrix(6.12323e-17,-1.02948,0.97136,6.12323e-17,1208.73,1964.2)">
                <rect x="1466.53" y="341.634" width="8.59" height="121.418" style="fill:rgb(232,232,232);stroke:white;stroke-width:22.01px;"/>
            </g>
            <g transform="matrix(6.12323e-17,-1.02948,0.97136,6.12323e-17,1208.73,1964.2)">
                <rect x="1400.53" y="456.862" width="74.592" height="6.189" style="fill:rgb(232,232,232);stroke:white;stroke-width:22.01px;"/>
            </g>
            <g transform="matrix(6.12323e-17,-1.02948,0.97136,6.12323e-17,1208.73,1911.64)">
                <rect x="1387.77" y="456.862" width="19.521" height="91.879" style="fill:white;stroke:white;stroke-width:22.01px;"/>
            </g>
            <g transform="matrix(6.12323e-17,-1.02948,0.97136,6.12323e-17,1208.73,1911.64)">
                <rect x="1211.53" y="502.802" width="195.76" height="6.814" style="fill:rgb(232,232,232);stroke:white;stroke-width:22.01px;"/>
            </g>
            <g transform="matrix(6.12323e-17,-1.02948,0.97136,6.12323e-17,1208.73,1911.64)">
                <rect x="1211.53" y="506.209" width="12.111" height="66.081" style="fill:rgb(232,232,232);stroke:white;stroke-width:22.01px;"/>
            </g>
            <g transform="matrix(-1.83697e-16,1.02948,-0.97136,-1.83697e-16,1275.34,-200.521)">
                <rect x="1064.97" y="539.25" width="158.672" height="9.492" style="fill:rgb(232,232,232);stroke:white;stroke-width:22.01px;"/>
            </g>
            <g transform="matrix(6.12323e-17,-1.02948,0.97136,6.12323e-17,1208.73,1911.64)">
                <rect x="1204.33" y="543.995" width="13.251" height="28.295" style="fill:rgb(232,232,232);stroke:white;stroke-width:22.01px;"/>
            </g>
            <g transform="matrix(-1.83697e-16,1.02948,-0.97136,-1.83697e-16,1275.34,-200.521)">
                <rect x="1064.97" y="442.939" width="8.613" height="105.803" style="fill:rgb(232,232,232);stroke:white;stroke-width:22.01px;"/>
            </g>
            <g transform="matrix(1.83697e-16,1.02948,0.97136,-1.83697e-16,1214.16,-172.397)">
                <rect x="1064.97" y="442.939" width="8.613" height="105.803" style="fill:rgb(232,232,232);stroke:white;stroke-width:22.01px;"/>
            </g>
            <rect x="825.453" y="359.163" width="6.047" height="101.477" style="fill:rgb(232,232,232);stroke:white;stroke-width:22.04px;"/>
            <g transform="matrix(3.2095e-17,0.539606,-0.50914,3.2095e-17,1063.01,11.8091)">
                <rect x="825.453" y="359.163" width="6.047" height="101.477" style="fill:rgb(232,232,232);stroke:white;stroke-width:41.99px;"/>
            </g>
            <g transform="matrix(-1.83697e-16,1.02948,-0.97136,-1.83697e-16,1275.34,-200.521)">
                <rect x="825.453" y="453.259" width="135.447" height="7.381" style="fill:rgb(232,232,232);stroke:white;stroke-width:22.01px;"/>
            </g>
            <g transform="matrix(1.83697e-16,1.02948,0.97136,-1.83697e-16,1214.16,-172.397)">
                <rect x="825.453" y="453.259" width="135.447" height="7.381" style="fill:rgb(232,232,232);stroke:white;stroke-width:22.01px;"/>
            </g>
            <g transform="matrix(-1.83697e-16,1.02948,-0.97136,-1.83697e-16,1275.34,-200.521)">
                <rect x="956.25" y="442.939" width="4.65" height="17.701" style="fill:rgb(232,232,232);stroke:white;stroke-width:22.01px;"/>
            </g>
            <g transform="matrix(1.83697e-16,1.02948,0.97136,-1.83697e-16,1214.16,-172.397)">
                <rect x="956.25" y="442.939" width="4.65" height="17.701" style="fill:rgb(232,232,232);stroke:white;stroke-width:22.01px;"/>
            </g>
            <g transform="matrix(-1.83697e-16,1.02948,-0.97136,-1.83697e-16,1275.34,-200.521)">
                <rect x="956.25" y="442.939" width="117.332" height="4.982" style="fill:rgb(232,232,232);stroke:white;stroke-width:22.01px;"/>
            </g>
            <g transform="matrix(1.83697e-16,1.02948,0.97136,-1.83697e-16,1214.16,-172.397)">
                <rect x="956.25" y="442.939" width="117.332" height="4.982" style="fill:rgb(232,232,232);stroke:white;stroke-width:22.01px;"/>
            </g>
            <g transform="matrix(6.12323e-17,-1.02948,0.97136,6.12323e-17,1208.73,1911.64)">
                <rect x="1388.51" y="593.782" width="18.703" height="47.52" style="fill:white;stroke:white;stroke-width:22.01px;"/>
            </g>
            <g transform="matrix(6.12323e-17,-1.02948,0.97136,6.12323e-17,1208.73,1911.64)">
                <rect x="1397.86" y="633.47" width="9.352" height="45.066" style="fill:rgb(232,232,232);stroke:white;stroke-width:22.01px;"/>
            </g>
            <g transform="matrix(6.12323e-17,-1.02948,0.97136,6.12323e-17,1208.73,1911.64)">
                <rect x="1397.86" y="671.612" width="211.34" height="6.924" style="fill:rgb(232,232,232);stroke:white;stroke-width:22.01px;"/>
            </g>
            <g transform="matrix(6.12323e-17,-1.02948,0.97136,6.12323e-17,1208.73,1911.64)">
                <rect x="1580.44" y="671.612" width="28.764" height="17.602" style="fill:rgb(232,232,232);stroke:white;stroke-width:22.01px;"/>
            </g>
            <g transform="matrix(6.12323e-17,-1.02948,0.97136,6.12323e-17,1208.73,1911.64)">
                <rect x="1580.44" y="671.612" width="7.893" height="68.254" style="fill:rgb(232,232,232);stroke:white;stroke-width:22.01px;"/>
            </g>
            <g transform="matrix(3.50224e-17,-0.588823,0.555578,3.50224e-17,1514,1211.73)">
                <rect x="1365.22" y="734.218" width="223.111" height="5.648" style="fill:rgb(232,232,232);stroke:white;stroke-width:38.48px;"/>
            </g>
            <g transform="matrix(6.12323e-17,-1.02948,0.97136,6.12323e-17,1208.73,1911.64)">
                <rect x="1348.41" y="830.927" width="35.213" height="14.816" style="fill:rgb(232,232,232);stroke:white;stroke-width:22.01px;"/>
            </g>
            <g transform="matrix(6.12323e-17,-1.02948,0.97136,6.12323e-17,1208.73,1911.64)">
                <rect x="1244.53" y="830.927" width="139.096" height="7.408" style="fill:rgb(232,232,232);stroke:white;stroke-width:22.01px;"/>
            </g>
            <g transform="matrix(6.12323e-17,-1.02948,0.97136,6.12323e-17,1208.73,1911.64)">
                <rect x="1460.55" y="826.003" width="219.291" height="8.628" style="fill:rgb(232,232,232);stroke:white;stroke-width:22.01px;"/>
            </g>
            <g transform="matrix(6.12323e-17,-1.02948,0.97136,6.12323e-17,1208.73,1911.64)">
                <rect x="1671.24" y="671.47" width="8.596" height="166.865" style="fill:rgb(232,232,232);stroke:white;stroke-width:22.01px;"/>
            </g>
            <g transform="matrix(6.12323e-17,-1.02948,0.97136,6.12323e-17,1208.73,1911.64)">
                <rect x="1650.67" y="671.47" width="29.166" height="16.742" style="fill:rgb(232,232,232);stroke:white;stroke-width:22.01px;"/>
            </g>
            <g transform="matrix(6.12323e-17,-1.02948,0.97136,6.12323e-17,1208.73,1911.64)">
                <rect x="1691.38" y="457.946" width="6.885" height="221.895" style="fill:rgb(232,232,232);stroke:white;stroke-width:22.01px;"/>
            </g>
            <g transform="matrix(6.12323e-17,-1.02948,0.97136,6.12323e-17,1208.73,1911.64)">
                <rect x="1658.45" y="671.47" width="39.82" height="8.371" style="fill:rgb(232,232,232);stroke:white;stroke-width:22.01px;"/>
            </g>
            <g transform="matrix(6.12323e-17,-1.02948,0.97136,6.12323e-17,1208.73,1911.64)">
                <rect x="1505.18" y="457.946" width="193.088" height="8.227" style="fill:rgb(232,232,232);stroke:white;stroke-width:22.01px;"/>
            </g>
            <g transform="matrix(6.12323e-17,-1.02948,0.97136,6.12323e-17,1208.73,1911.64)">
                <rect x="1514.96" y="534.126" width="8.709" height="72.604" style="fill:rgb(232,232,232);stroke:white;stroke-width:22.01px;"/>
            </g>
            <g transform="matrix(6.12323e-17,-1.02948,0.97136,6.12323e-17,1208.73,1911.64)">
                <rect x="1514.96" y="599.255" width="73.857" height="7.475" style="fill:rgb(232,232,232);stroke:white;stroke-width:22.01px;"/>
            </g>
            <g transform="matrix(4.2601e-17,-0.716241,0.97136,6.12323e-17,1208.73,1505.34)">
                <rect x="1244.9" y="564.257" width="122.803" height="20.156" style="fill:white;stroke:white;stroke-width:25.87px;"/>
            </g>
            <rect x="558.702" y="220.846" width="33.055" height="144.478" style="fill:rgb(232,232,232);stroke:white;stroke-width:22.04px;"/>
        </g>
    </g>
    <defs>
        <radialGradient id="_Radial1" cx="0" cy="0" r="1" gradientUnits="userSpaceOnUse" gradientTransform="matrix(888.511,0,0,888.511,1272.01,398.484)"><stop offset="0" style="stop-color:rgb(171,208,255);stop-opacity:1"/><stop offset="1" style="stop-color:rgb(129,162,219);stop-opacity:1"/></radialGradient>
    </defs>
</svg>
