<?xml version="1.0" encoding="UTF-8" standalone="no"?>
<!DOCTYPE svg PUBLIC "-//W3C//DTD SVG 1.1//EN" "http://www.w3.org/Graphics/SVG/1.1/DTD/svg11.dtd">
<svg width="100%" height="100%" viewBox="0 0 2363 2363" version="1.1" xmlns="http://www.w3.org/2000/svg" xmlns:xlink="http://www.w3.org/1999/xlink" xml:space="preserve" xmlns:serif="http://www.serif.com/" style="fill-rule:evenodd;clip-rule:evenodd;stroke-linecap:round;stroke-linejoin:round;stroke-miterlimit:1.5;">
    <rect x="0" y="0" width="2362.2" height="2362.2"/>
    <rect x="0" y="0" width="2362.2" height="2362.2" style="fill:rgb(238,75,75);"/>
    <clipPath id="_clip1">
        <circle id="Fondo" cx="1181.1" cy="1181.1" r="1181.1"/>
    </clipPath>
    <g clip-path="url(#_clip1)">
        <rect x="0" y="0" width="2384.82" height="2362.2" style="fill:rgb(238,75,75);"/>
    </g>
    <g id="Pastilla" transform="matrix(1,0,0,1,38.1374,-18.6301)">
        <path d="M2169.53,1199.73C2169.53,877.587 1907.99,616.046 1585.84,616.046L700.087,616.046C377.941,616.046 116.4,877.587 116.4,1199.73C116.4,1521.88 377.941,1783.42 700.087,1783.42L1585.84,1783.42C1907.99,1783.42 2169.53,1521.88 2169.53,1199.73Z" style="fill:white;"/>
    </g>
    <g id="Fondo-de-Pastilla" serif:id="Fondo de Pastilla" transform="matrix(0.754083,0,0,0.582322,315.846,487.464)">
        <path d="M2169.53,1199.73C2169.53,877.587 1967.56,616.046 1718.79,616.046L567.138,616.046C318.369,616.046 116.4,877.587 116.4,1199.73C116.4,1521.88 318.369,1783.42 567.138,1783.42L1718.79,1783.42C1967.56,1783.42 2169.53,1521.88 2169.53,1199.73Z" style="fill:rgb(238,75,75);"/>
    </g>
    <g transform="matrix(0.277483,0,0,2.10622,882.032,-1190.62)">
        <path d="M1387.95,893.042C1387.95,881.766 1318.46,872.611 1232.87,872.611L922.716,872.611C837.125,872.611 767.637,881.766 767.637,893.042L767.637,1358.54C767.637,1369.82 837.125,1378.97 922.716,1378.97L1232.87,1378.97C1318.46,1378.97 1387.95,1369.82 1387.95,1358.54L1387.95,893.042Z" style="fill:white;"/>
    </g>
    <g transform="matrix(1.74951,0,0,0.669758,-1339.79,786.922)">
        <path d="M1641.24,595.996C1641.24,393.385 1578.26,228.89 1500.7,228.89L1195.39,228.89C1117.82,228.89 1054.85,393.385 1054.85,595.996C1054.85,798.608 1117.82,963.103 1195.39,963.103L1500.7,963.103C1578.26,963.103 1641.24,798.608 1641.24,595.996Z" style="fill:rgb(75,75,238);"/>
    </g>
    <g transform="matrix(0.230388,0,0,2.5538,861.335,-1694.5)">
        <path d="M1387.95,886.602C1387.95,878.88 1318.46,872.611 1232.87,872.611L922.716,872.611C837.125,872.611 767.637,878.88 767.637,886.602L767.637,1364.98C767.637,1372.7 837.125,1378.97 922.716,1378.97L1232.87,1378.97C1318.46,1378.97 1387.95,1372.7 1387.95,1364.98L1387.95,886.602Z" style="fill:rgb(238,75,75);"/>
    </g>
    <g transform="matrix(1.16144,0,0,1,-373.32,0.175425)">
        <path d="M1338.35,647.12L1338.35,1689.61L1564.55,1713.62L1789.5,1650.46L1968.49,1557.42L2109.91,1374.34L2130.7,1153.29L2078.27,915.403L1947.92,758.375L1793.57,710.285L1463.07,647.12L1338.35,647.12" style="fill:white;"/>
    </g>
    <path d="M1310.02,987.374C1310.02,987.372 1310.02,987.371 1310.01,987.371L1310.01,987.371C1310.01,987.371 1310.01,987.372 1310.01,987.374L1310.01,988.631C1310.01,988.632 1310.01,988.634 1310.01,988.634L1310.01,988.634C1310.02,988.634 1310.02,988.632 1310.02,988.631L1310.02,987.374Z" style="fill:white;"/>
    <g transform="matrix(1.33887,0,0,0.742473,-158.105,418.746)">
        <path d="M1531.57,1026.96C1531.57,817.419 1437.23,647.295 1321.02,647.295L676.888,647.295C560.684,647.295 466.342,817.419 466.342,1026.96C466.342,1236.51 560.684,1406.63 676.888,1406.63L1321.02,1406.63C1437.23,1406.63 1531.57,1236.51 1531.57,1026.96Z" style="fill:none;stroke:rgb(238,75,75);stroke-width:103.92px;"/>
    </g>
    <g id="Logo-v2.2" serif:id="Logo v2.2">
        <rect x="0" y="0" width="2362.2" height="2362.2" style="fill:rgb(238,75,75);"/>
        <clipPath id="_clip2">
            <circle id="Fondo1" serif:id="Fondo" cx="1181.1" cy="1181.1" r="1181.1"/>
        </clipPath>
        <g clip-path="url(#_clip2)">
            <rect x="0" y="0" width="2384.82" height="2362.2" style="fill:rgb(238,75,75);"/>
        </g>
        <g transform="matrix(1.1537,0,0,1.1537,-135.93,-178.713)">
            <g transform="matrix(0.868113,0,0,0.868113,70.7691,196.891)">
                <circle cx="715.688" cy="1267.11" r="409.676" style="fill:none;stroke:white;stroke-width:187.21px;"/>
            </g>
            <g transform="matrix(1.00417e-16,-1.63993,0.791547,4.84683e-17,569.745,3334.26)">
                <path d="M1243.86,304.32L1508.65,807.1L979.071,807.1L1243.86,304.32Z" style="fill:rgb(238,75,75);"/>
            </g>
            <g transform="matrix(0.868113,0,0,0.868113,860.877,196.891)">
                <circle cx="715.688" cy="1267.11" r="409.676" style="fill:none;stroke:white;stroke-width:187.21px;"/>
            </g>
        </g>
        <g transform="matrix(1.20113,0,0,4.1777,31.7172,-895.17)">
            <rect x="1558.03" y="342.229" width="171.402" height="306.649" style="fill:white;"/>
        </g>
    </g>
</svg>
