<?xml version="1.0" encoding="UTF-8" standalone="no"?>
<!DOCTYPE svg PUBLIC "-//W3C//DTD SVG 1.1//EN" "http://www.w3.org/Graphics/SVG/1.1/DTD/svg11.dtd">
<svg width="100%" height="100%" viewBox="0 0 351 110" version="1.1" xmlns="http://www.w3.org/2000/svg" xmlns:xlink="http://www.w3.org/1999/xlink" xml:space="preserve" style="fill-rule:evenodd;clip-rule:evenodd;stroke-linecap:round;stroke-linejoin:round;stroke-miterlimit:1.5;">
    <g id="Mesa-de-trabajo1" transform="matrix(0.903701,0,0,0.694195,16.1969,24.4279)">
        <rect x="-17.923" y="-35.189" width="387.343" height="157.213" style="fill:none;"/>
        <clipPath id="_clip1">
            <rect x="-17.923" y="-35.189" width="387.343" height="157.213"/>
        </clipPath>
        <g clip-path="url(#_clip1)">
            <g id="AO-itch.2e.io" transform="matrix(0.623578,0,0,0.811772,-299.082,-2107.99)">
                <g transform="matrix(1.08109,0,0,1.10123,-47.8607,-280.661)">
                    <path d="M1032.04,2602.14C1032.04,2588.18 1020.5,2576.85 1006.29,2576.85L491.115,2576.85C476.901,2576.85 465.361,2588.18 465.361,2602.14L465.361,2720.12C465.361,2734.08 476.901,2745.4 491.115,2745.4L1006.29,2745.4C1020.5,2745.4 1032.04,2734.08 1032.04,2720.12L1032.04,2602.14Z" style="fill:white;stroke:rgb(164,164,164);stroke-width:6.78px;"/>
                </g>
                <g transform="matrix(1.67188,0,0,1.67188,-411.193,-1800.19)">
                    <text x="622.08px" y="2646.91px" style="font-family:'Lato-Light', 'Lato', sans-serif;font-weight:300;font-size:29.167px;fill:rgb(164,164,164);">a<tspan x="636.546px 651.48px 666.18px 673.253px 680.282px 694.982px 711.636px 718.665px 734.459px 742.961px 759.819px " y="2646.91px 2646.91px 2646.91px 2646.91px 2646.91px 2646.91px 2646.91px 2646.91px 2646.91px 2646.91px 2646.91px ">vailable on</tspan></text>
                </g>
                <g transform="matrix(2.90279,0,0,2.90279,-1263.27,-4971.98)">
                    <text x="652.07px" y="2646.91px" style="font-family:'Lato-Light', 'Lato', sans-serif;font-weight:300;font-size:29.167px;fill:rgb(164,164,164);">i<tspan x="659.143px 669.672px 684.008px 700.633px 708.026px 715.099px " y="2646.91px 2646.91px 2646.91px 2646.91px 2646.91px 2646.91px ">tch.io</tspan></text>
                </g>
                <g id="ITCH.2e.IO-Icon">
                    <g transform="matrix(1,0,0,1.08379,-5.24727,-0.613036)">
                        <rect x="496.861" y="2424.03" width="114.878" height="81.103" style="fill:none;stroke:rgb(164,164,164);stroke-width:3.55px;"/>
                    </g>
                    <g transform="matrix(0.826144,0,0,1,85.9892,4.7607)">
                        <ellipse cx="496.731" cy="2623.53" rx="14.022" ry="9.791" style="fill:white;"/>
                    </g>
                    <g transform="matrix(0.826144,0,0,1,112.358,4.7607)">
                        <ellipse cx="496.731" cy="2623.53" rx="14.022" ry="9.791" style="fill:white;"/>
                    </g>
                    <g transform="matrix(0.826144,0,0,1,138.726,4.7607)">
                        <ellipse cx="496.731" cy="2623.53" rx="14.022" ry="9.791" style="fill:white;"/>
                    </g>
                    <g transform="matrix(0.826144,0,0,1,165.095,4.7607)">
                        <ellipse cx="496.731" cy="2623.53" rx="14.022" ry="9.791" style="fill:white;"/>
                    </g>
                    <g transform="matrix(0.826144,0,0,1,191.463,4.7607)">
                        <ellipse cx="496.731" cy="2623.53" rx="14.022" ry="9.791" style="fill:white;"/>
                    </g>
                    <g>
                        <g transform="matrix(1,0,0,0.877984,-5.24727,500.562)">
                            <path d="M601.807,2387.12L504.87,2387.12L487.956,2406.97L487.956,2416.95" style="fill:none;stroke:rgb(164,164,164);stroke-width:7.86px;"/>
                        </g>
                        <g transform="matrix(-1,0,0,0.877984,1104.4,500.562)">
                            <path d="M601.807,2387.12L504.87,2387.12L487.956,2406.97L487.956,2416.95" style="fill:none;stroke:rgb(164,164,164);stroke-width:7.86px;"/>
                        </g>
                        <g transform="matrix(1,0,0,1,-31.115,208.543)">
                            <path d="M513.823,2414.06C518.135,2434.99 536.628,2434.41 540.571,2414.06" style="fill:none;stroke:rgb(164,164,164);stroke-width:7.39px;"/>
                        </g>
                        <g transform="matrix(1,0,0,1,-4.36766,208.543)">
                            <path d="M513.823,2414.06C518.135,2434.99 536.628,2434.41 540.571,2414.06" style="fill:none;stroke:rgb(164,164,164);stroke-width:7.39px;"/>
                        </g>
                        <g transform="matrix(1,0,0,1,22.3797,208.543)">
                            <path d="M513.823,2414.06C518.135,2434.99 536.628,2434.41 540.571,2414.06" style="fill:none;stroke:rgb(164,164,164);stroke-width:7.39px;"/>
                        </g>
                        <g transform="matrix(1,0,0,1,49.127,208.543)">
                            <path d="M513.823,2414.06C518.135,2434.99 536.628,2434.41 540.571,2414.06" style="fill:none;stroke:rgb(164,164,164);stroke-width:7.39px;"/>
                        </g>
                        <g transform="matrix(1,0,0,1,75.8743,208.543)">
                            <path d="M513.823,2414.06C518.135,2434.99 536.628,2434.41 540.571,2414.06" style="fill:none;stroke:rgb(164,164,164);stroke-width:7.39px;"/>
                        </g>
                        <g transform="matrix(1,0,0,1,-5.24727,209.295)">
                            <path d="M552.801,2482.57L531.955,2482.57C523.594,2501.76 504.391,2502.81 503.75,2482.98C507.348,2458.44 514.328,2440.82 528.272,2437.47C533.001,2436.45 537.172,2438.51 540.441,2445.53L554.3,2445.39" style="fill:none;stroke:rgb(164,164,164);stroke-width:3.7px;"/>
                        </g>
                        <g transform="matrix(-1,0,0,1,1102.55,209.295)">
                            <path d="M557.358,2482.59L531.955,2482.57C523.594,2501.76 504.391,2502.81 503.75,2482.98C507.348,2458.44 514.328,2440.82 528.272,2437.47C533.001,2436.45 537.172,2438.51 540.441,2445.53L554.3,2445.39" style="fill:none;stroke:rgb(164,164,164);stroke-width:3.7px;"/>
                        </g>
                        <g transform="matrix(7.38967e-17,1.20682,-1.87459,1.14786e-16,5168.71,2021.1)">
                            <path d="M543.606,2468.29L543.606,2474.62L527.667,2464.88L543.606,2455.13L543.606,2461.47L552.558,2461.47L552.558,2468.29L543.606,2468.29Z" style="fill:none;stroke:rgb(164,164,164);stroke-width:2.35px;"/>
                        </g>
                    </g>
                </g>
            </g>
        </g>
    </g>
</svg>
