<?xml version="1.0" encoding="UTF-8" standalone="no"?>
<!DOCTYPE svg PUBLIC "-//W3C//DTD SVG 1.1//EN" "http://www.w3.org/Graphics/SVG/1.1/DTD/svg11.dtd">
<svg width="100%" height="100%" viewBox="0 0 2260 860" version="1.1" xmlns="http://www.w3.org/2000/svg" xmlns:xlink="http://www.w3.org/1999/xlink" xml:space="preserve" xmlns:serif="http://www.serif.com/" style="fill-rule:evenodd;clip-rule:evenodd;stroke-linejoin:round;stroke-miterlimit:1.41421;">
    <g id="Form-Bootstrap" serif:id="Form Bootstrap">
        <g transform="matrix(0.944215,0,0,0.869955,126.075,111.838)">
            <rect x="-133.524" y="-128.557" width="2393.52" height="988.557" style="fill:rgb(255,166,234);"/>
        </g>
        <g transform="matrix(0.479506,0,0,0.747625,896.583,105.6)">
            <g transform="matrix(13.6296,0,0,1.22177,-1816.29,-12.9673)">
                <path d="M205,87C205,78.721 204.061,72 202.904,72L147.096,72C145.939,72 145,78.721 145,87L145,117C145,125.279 145.939,132 147.096,132L202.904,132C204.061,132 205,125.279 205,117L205,87Z" style="fill:rgb(255,97,220);"/>
            </g>
            <g transform="matrix(2.66322,0,0,1.70811,-2710.61,-446.502)">
                <circle cx="1042.78" cy="326.481" r="21.744" style="fill:rgb(255,97,220);"/>
            </g>
        </g>
        <g transform="matrix(0.479506,0,0,0.747625,896.583,166.157)">
            <g transform="matrix(2.6282,0,0,1.68565,-2674.85,-415.508)">
                <circle cx="1042.78" cy="326.481" r="21.744" style="fill:rgb(255,97,220);"/>
            </g>
            <g transform="matrix(13.6296,0,0,1.22177,-1816.29,10.2045)">
                <path d="M205,87C205,78.721 204.061,72 202.904,72L147.096,72C145.939,72 145,78.721 145,87L145,117C145,125.279 145.939,132 147.096,132L202.904,132C204.061,132 205,125.279 205,117L205,87Z" style="fill:rgb(255,97,220);"/>
            </g>
        </g>
        <g transform="matrix(0.497471,0,0,0.747625,896.349,226.715)">
            <g transform="matrix(2.53328,0,0,1.68565,-2577.79,-392.336)">
                <circle cx="1042.78" cy="326.481" r="21.744" style="fill:rgb(255,97,220);"/>
            </g>
            <g transform="matrix(8.41725,0,0,1.22177,-1060.5,33.3763)">
                <path d="M205,87C205,78.721 203.534,72 201.728,72L148.272,72C146.466,72 145,78.721 145,87L145,117C145,125.279 146.466,132 148.272,132L201.728,132C203.534,132 205,125.279 205,117L205,87Z" style="fill:rgb(255,97,220);"/>
            </g>
        </g>
        <g transform="matrix(1,0,0,1,2.73268,0)">
            <g transform="matrix(14.4675,0,0,0.913425,-652.014,95.9051)">
                <path d="M205,87C205,78.721 204.576,72 204.053,72L145.947,72C145.424,72 145,78.721 145,87L145,117C145,125.279 145.424,132 145.947,132L204.053,132C204.576,132 205,125.279 205,117L205,87Z" style="fill:rgb(255,139,229);"/>
            </g>
            <g transform="matrix(14.3764,0,0,0.913425,-633.351,251.668)">
                <path d="M205,87C205,78.721 204.573,72 204.047,72L145.953,72C145.427,72 145,78.721 145,87L145,117C145,125.279 145.427,132 145.953,132L204.047,132C204.573,132 205,125.279 205,117L205,87Z" style="fill:rgb(255,139,229);"/>
            </g>
            <g transform="matrix(14.4675,0,0,0.913425,-652.014,173.787)">
                <path d="M205,87C205,78.721 204.576,72 204.053,72L145.947,72C145.424,72 145,78.721 145,87L145,117C145,125.279 145.424,132 145.947,132L204.053,132C204.576,132 205,125.279 205,117L205,87Z" style="fill:rgb(255,139,229);"/>
            </g>
        </g>
        <g transform="matrix(1,0,0,1,-1504.31,0)">
            <g transform="matrix(14.4675,0,0,0.913425,-652.014,95.9051)">
                <path d="M205,87C205,78.721 204.576,72 204.053,72L145.947,72C145.424,72 145,78.721 145,87L145,117C145,125.279 145.424,132 145.947,132L204.053,132C204.576,132 205,125.279 205,117L205,87Z" style="fill:rgb(255,139,229);"/>
            </g>
            <g transform="matrix(14.3764,0,0,0.913425,-633.351,251.668)">
                <path d="M205,87C205,78.721 204.573,72 204.047,72L145.953,72C145.427,72 145,78.721 145,87L145,117C145,125.279 145.427,132 145.953,132L204.047,132C204.573,132 205,125.279 205,117L205,87Z" style="fill:rgb(255,139,229);"/>
            </g>
            <g transform="matrix(14.4675,0,0,0.913425,-652.014,173.787)">
                <path d="M205,87C205,78.721 204.576,72 204.053,72L145.947,72C145.424,72 145,78.721 145,87L145,117C145,125.279 145.424,132 145.947,132L204.053,132C204.576,132 205,125.279 205,117L205,87Z" style="fill:rgb(255,139,229);"/>
            </g>
        </g>
    </g>
</svg>
