<?xml version="1.0" encoding="UTF-8" standalone="no"?>
<!DOCTYPE svg PUBLIC "-//W3C//DTD SVG 1.1//EN" "http://www.w3.org/Graphics/SVG/1.1/DTD/svg11.dtd">
<svg width="100%" height="100%" viewBox="0 0 2260 860" version="1.1" xmlns="http://www.w3.org/2000/svg" xmlns:xlink="http://www.w3.org/1999/xlink" xml:space="preserve" xmlns:serif="http://www.serif.com/" style="fill-rule:evenodd;clip-rule:evenodd;stroke-linecap:round;stroke-linejoin:round;stroke-miterlimit:1.5;">
    <g id="LunarLander">
        <g transform="matrix(13.0163,0,0,1.52671,-3.12639e-13,-7.63357)">
            <rect x="0" y="5" width="173.629" height="563.301" style="fill:rgb(14,14,14);"/>
        </g>
        <g transform="matrix(1,0,0,1,0,-192)">
            <path d="M2296.11,587.481L2233.2,541.786L2212.45,549.598L2194.09,514.505L2151.28,517.09L2084.65,491.067L2084.65,458.071L2063.15,458.723L2049.12,430L2029.52,432.5L2013.8,401.079L1999.53,401.255L1983.3,399.087L1967.75,383.337L1971.69,372.829L1933.44,338.368L1915.88,340.27L1909.63,324.067L1830.19,323.501L1814.37,327.13L1792.24,338.313L1789.05,351.661L1769.83,350.926L1752.71,348.825L1742.39,365.563L1734.07,354.915L1714.49,372.102L1727.33,378.18L1711.58,392.102L1718.61,399.079L1714.57,407.575L1675.37,409.399L1665.68,410.633L1649.47,432.5L1633.67,421.762L1628.73,439.518L1606.78,436.727L1598.18,450.798L1577.71,447.51L1568.92,459.384L1550.81,459.767L1532.49,465.733L1517.68,476.24L1526.06,495.636L1515.91,506.594L1507.51,506.207L1491.45,532.421L1451.27,529.139L1398.98,535.697L1381.03,544.386L1367.95,562.58L1321.87,557.883L1293.73,568.271L1260.61,591.04L1265.59,603.567L1242.83,605.946L1189.55,604.904L1176.15,594.826L1171.65,580.763L1155.11,567.82L1112.15,561.527L1057.27,511.906L1025.58,513.162L1000.65,484.139L982.707,482.317L971.544,471.019L918.082,470.464L878.912,473.37L862.734,463.684L848.122,463.484L829.407,470.394L814.114,455.714L799.415,459.28L784.211,448.274L768.432,447.34L763.169,434.713L747.985,424.61L702.456,423.633L659.259,427.688L634.945,412.09L630.129,398.905L613.406,408.041L588.892,370.512L571.679,373.097L544.029,347.214L514.889,340.707L504.111,322.472L487.374,311.966L467.033,322.884L449.602,336.564L442.922,352.666L433.432,362.13L418.536,367.645L373.706,369.417L361.261,373.191L359.312,387.322L344.311,394.773L343.126,415.308L326.414,416.773L322.136,439.579L302.82,446.581L299.411,460.7L285.63,458.986L267.652,469.398L259.944,483.829L246.155,487.126L236.808,490.38L219.297,504.56L211.297,513.378L197.137,518.811L175.93,515.505L150.856,505.212L140.782,521.852L123.832,531.38L102.024,531.442L80.213,526.351L67.158,541.949L35.392,549.689L18.001,547.63L0,559.778L-10.245,563.21" style="fill:none;stroke:white;stroke-width:11.67px;"/>
        </g>
        <g id="Nave" transform="matrix(0.231849,-0.43942,0.43942,0.231849,813.52,660.626)">
            <path d="M1194.2,270.833L1219.18,322.464L1169.22,322.464L1194.2,270.833Z" style="fill:white;stroke:white;stroke-width:8.39px;"/>
            <g transform="matrix(1,0,0,1.26149,2,-92.8656)">
                <path d="M1188.76,331.763C1188.76,330.368 1187.33,329.236 1185.57,329.236L1172.41,329.236C1170.65,329.236 1169.22,330.368 1169.22,331.763L1169.22,336.818C1169.22,338.213 1170.65,339.346 1172.41,339.346L1185.57,339.346C1187.33,339.346 1188.76,338.213 1188.76,336.818L1188.76,331.763Z" style="fill:white;"/>
            </g>
            <g transform="matrix(1,0,0,1.26149,28.4191,-92.8656)">
                <path d="M1188.76,331.763C1188.76,330.368 1187.33,329.236 1185.57,329.236L1172.41,329.236C1170.65,329.236 1169.22,330.368 1169.22,331.763L1169.22,336.818C1169.22,338.213 1170.65,339.346 1172.41,339.346L1185.57,339.346C1187.33,339.346 1188.76,338.213 1188.76,336.818L1188.76,331.763Z" style="fill:white;"/>
            </g>
            <g transform="matrix(0.512631,-3.31901e-17,-1.90504e-17,0.343181,602.868,214.619)">
                <path d="M1188.76,331.763C1188.76,330.368 1188,329.236 1187.07,329.236L1170.91,329.236C1169.98,329.236 1169.22,330.368 1169.22,331.763L1169.22,336.818C1169.22,338.213 1169.98,339.346 1170.91,339.346L1187.07,339.346C1188,339.346 1188.76,338.213 1188.76,336.818L1188.76,331.763Z" style="stroke:black;stroke-width:11.54px;"/>
            </g>
            <g transform="matrix(0.434204,0,3.4895e-17,0.343181,669.231,214.619)">
                <path d="M1188.76,331.763C1188.76,330.368 1187.87,329.236 1186.77,329.236L1171.22,329.236C1170.11,329.236 1169.22,330.368 1169.22,331.763L1169.22,336.818C1169.22,338.213 1170.11,339.346 1171.22,339.346L1186.77,339.346C1187.87,339.346 1188.76,338.213 1188.76,336.818L1188.76,331.763Z" style="stroke:black;stroke-width:12.86px;"/>
            </g>
            <g transform="matrix(-1,0,0,-1,2340.37,693.451)">
                <path d="M1159.56,344.73L1166.25,355.644L1152.87,355.644L1159.56,344.73Z" style="fill:white;stroke:white;stroke-width:1.34px;"/>
            </g>
            <g transform="matrix(-0.683033,0,0,-0.683033,1972.82,581.723)">
                <path d="M1159.56,344.73L1166.25,355.644L1152.87,355.644L1159.56,344.73Z" style="fill:white;stroke:black;stroke-width:1.47px;"/>
            </g>
            <g transform="matrix(-1,0,0,-1,2367.35,693.661)">
                <path d="M1159.56,344.73L1166.25,355.644L1152.87,355.644L1159.56,344.73Z" style="fill:white;stroke:white;stroke-width:1.51px;"/>
            </g>
            <g transform="matrix(-0.683033,0,0,-0.683033,1999.81,581.933)">
                <path d="M1159.56,344.73L1166.25,355.644L1152.87,355.644L1159.56,344.73Z" style="fill:white;stroke:black;stroke-width:1.47px;"/>
            </g>
            <g transform="matrix(1,0,0,1,2.71941,0.840901)">
                <path d="M1180.99,298.206L1172.74,315.918" style="fill:none;stroke:black;stroke-width:5.03px;"/>
            </g>
            <g transform="matrix(-1,0,0,1,2387.56,2.71941)">
                <path d="M1180.99,298.206L1172.74,315.918" style="fill:none;stroke:black;stroke-width:5.03px;"/>
            </g>
            <g transform="matrix(0.727735,0,0,0.864158,323.378,38.2134)">
                <path d="M1196.76,274.393L1200.86,282.595L1192.65,282.595L1196.76,274.393Z" style="stroke:black;stroke-width:6.3px;"/>
            </g>
            <g transform="matrix(0.703583,0,0,0.721411,350.521,80.2141)">
                <path d="M1209.33,296.648L1189.18,296.648L1194.22,288.822L1204.29,288.822L1209.33,296.648Z" style="stroke:black;stroke-width:7.06px;"/>
            </g>
        </g>
    </g>
</svg>
