<?xml version="1.0" encoding="UTF-8" standalone="no"?>
<!DOCTYPE svg PUBLIC "-//W3C//DTD SVG 1.1//EN" "http://www.w3.org/Graphics/SVG/1.1/DTD/svg11.dtd">
<svg width="100%" height="100%" viewBox="0 0 2260 860" version="1.1" xmlns="http://www.w3.org/2000/svg" xmlns:xlink="http://www.w3.org/1999/xlink" xml:space="preserve" xmlns:serif="http://www.serif.com/" style="fill-rule:evenodd;clip-rule:evenodd;stroke-linejoin:round;stroke-miterlimit:1.41421;">
    <g transform="matrix(3.44631,0,0,2.0009,-3132.31,-536.629)">
        <rect x="908.889" y="268.387" width="655.773" height="429.613" style="fill:rgb(68,147,225);"/>
    </g>
    <g transform="matrix(1.85933,0,0,1.85933,785.818,98.5666)">
        <text x="88.219px" y="128.446px" style="font-family:'Seravek-Bold', 'Seravek', sans-serif;font-weight:700;font-size:120px;fill:rgb(224,70,70);">&lt;/&gt;</text>
    </g>
    <g transform="matrix(1.85933,0,0,1.85933,1159.78,98.5666)">
        <text x="88.219px" y="128.446px" style="font-family:'Seravek-Bold', 'Seravek', sans-serif;font-weight:700;font-size:120px;fill:rgb(26,109,187);">&lt;/&gt;</text>
    </g>
    <g transform="matrix(1.85933,0,0,1.85933,-315.08,98.5666)">
        <text x="88.219px" y="128.446px" style="font-family:'Seravek-Bold', 'Seravek', sans-serif;font-weight:700;font-size:120px;fill:rgb(26,109,187);">&lt;/&gt;</text>
    </g>
    <g transform="matrix(1.85933,0,0,1.85933,1513.75,98.5666)">
        <text x="88.219px" y="128.446px" style="font-family:'Seravek-Bold', 'Seravek', sans-serif;font-weight:700;font-size:120px;fill:rgb(26,109,187);">&lt;/&gt;</text>
    </g>
    <g transform="matrix(1.85933,0,0,1.85933,58.8861,98.5666)">
        <text x="88.219px" y="128.446px" style="font-family:'Seravek-Bold', 'Seravek', sans-serif;font-weight:700;font-size:120px;fill:rgb(26,109,187);">&lt;/&gt;</text>
    </g>
    <g transform="matrix(1.85933,0,0,1.85933,1887.72,98.5666)">
        <text x="88.219px" y="128.446px" style="font-family:'Seravek-Bold', 'Seravek', sans-serif;font-weight:700;font-size:120px;fill:rgb(26,109,187);">&lt;/&gt;</text>
    </g>
    <g transform="matrix(1.85933,0,0,1.85933,411.852,98.5666)">
        <text x="88.219px" y="128.446px" style="font-family:'Seravek-Bold', 'Seravek', sans-serif;font-weight:700;font-size:120px;fill:rgb(26,109,187);">&lt;/&gt;</text>
    </g>
</svg>
