<?xml version="1.0" encoding="UTF-8" standalone="no"?>
<!DOCTYPE svg PUBLIC "-//W3C//DTD SVG 1.1//EN" "http://www.w3.org/Graphics/SVG/1.1/DTD/svg11.dtd">
<svg width="100%" height="100%" viewBox="0 0 2260 860" version="1.1" xmlns="http://www.w3.org/2000/svg" xmlns:xlink="http://www.w3.org/1999/xlink" xml:space="preserve" xmlns:serif="http://www.serif.com/" style="fill-rule:evenodd;clip-rule:evenodd;stroke-linejoin:round;stroke-miterlimit:1.41421;">
    <g id="Fondo-Referencia" serif:id="Fondo Referencia" transform="matrix(1.24381,0,0,1.00585,-3.12639e-13,-1.20792e-13)">
        <rect x="0" y="0" width="1817" height="855" style="fill:rgb(85,85,85);"/>
    </g>
    <g id="GeneralaJS" transform="matrix(1,0,0,1,221.5,2.5)">
        <g transform="matrix(1.24381,0,0,1.00585,-221.5,-2.5)">
            <rect x="0" y="0" width="1817" height="855" style="fill:rgb(30,255,193);"/>
        </g>
        <g transform="matrix(0.543988,0.386725,-0.579413,0.815034,531.287,-327.332)">
            <path d="M1079.9,129.099L844.855,142.176L749.54,284.151L985.538,274.257L1079.9,129.099Z" style="fill:rgb(255,255,207);"/>
        </g>
        <g transform="matrix(1,0,0,1,183.479,1.42383)">
            <path d="M725.021,275.905L585.594,201.859L584.51,357.221L720.613,433.621L725.021,275.905Z" style="fill:rgb(255,255,135);"/>
        </g>
        <g transform="matrix(1,0,0,-1,324.654,636.904)">
            <path d="M725.021,275.905L585.594,201.859L584.51,357.221L720.613,433.621L725.021,275.905Z" style="fill:rgb(255,255,175);"/>
        </g>
        <g transform="matrix(3.75298,0,0,3.75298,908.5,277.329)">
            <g transform="matrix(1,0,0,1,-50,-50)">
                <g transform="matrix(1,0,0,1,0,-952.362)">
                    <path d="M50,957.362C46.502,957.362 43.671,959.163 38.586,962.099L20.839,972.35C15.753,975.286 12.779,976.836 11.03,979.866C9.28,982.895 9.425,986.242 9.425,992.114L9.425,1012.61C9.425,1018.48 9.28,1021.83 11.03,1024.86C12.779,1027.89 15.753,1029.44 20.839,1032.37L38.586,1042.62C43.671,1045.56 46.502,1047.36 50,1047.36C53.498,1047.36 56.329,1045.56 61.414,1042.62L79.161,1032.37C84.247,1029.44 87.221,1027.89 88.97,1024.86C90.72,1021.83 90.575,1018.48 90.575,1012.61L90.575,992.114C90.575,986.242 90.72,982.895 88.97,979.866C87.221,976.836 84.247,975.286 79.161,972.35L61.414,962.099C56.329,959.163 53.498,957.362 50,957.362ZM50,962.327C51.587,962.327 53.846,963.464 58.932,966.4L76.679,976.646L76.679,976.651C79.694,978.392 81.577,979.563 82.846,980.535L58.932,994.34C53.846,997.276 51.587,998.413 50,998.413C48.413,998.413 46.154,997.276 41.068,994.34L17.154,980.535C18.423,979.562 20.306,978.387 23.321,976.646L23.321,976.651L41.068,966.401C46.154,963.465 48.413,962.328 50,962.328L50,962.327ZM50,965.343C46.694,965.344 44.017,966.892 44.016,968.801C44.017,970.709 46.694,972.258 50,972.258C53.306,972.258 55.988,970.709 55.988,968.801C55.988,967.902 55.381,967.036 54.296,966.391C53.169,965.721 51.618,965.343 50,965.343ZM70.04,976.913C66.735,976.913 64.057,978.462 64.057,980.37C64.057,982.279 66.735,983.827 70.04,983.827C73.346,983.827 76.024,982.279 76.024,980.37C76.024,979.436 75.371,978.543 74.21,977.892C73.094,977.266 71.598,976.913 70.04,976.913ZM29.96,976.918C26.654,976.918 23.971,978.462 23.971,980.37C23.971,982.279 26.654,983.827 29.96,983.827C33.265,983.827 35.943,982.279 35.943,980.37C35.944,979.436 35.29,978.544 34.13,977.892C33.012,977.266 31.517,976.917 29.96,976.918ZM14.671,984.836L38.586,998.641C43.671,1001.58 45.783,1002.96 46.577,1004.34C47.37,1005.71 47.517,1008.24 47.517,1014.11L47.517,1041.73C46.04,1041.11 44.083,1040.07 41.068,1038.32L23.321,1028.08C18.236,1025.14 16.124,1023.75 15.331,1022.38C14.537,1021.01 14.39,1018.48 14.39,1012.61L14.39,992.114C14.39,988.635 14.464,986.42 14.671,984.836ZM85.329,984.836C85.536,986.42 85.61,988.635 85.61,992.114L85.61,1012.61C85.61,1018.48 85.463,1021.01 84.669,1022.38C83.876,1023.75 81.764,1025.14 76.679,1028.08L58.932,1038.32C55.917,1040.07 53.96,1041.11 52.483,1041.73L52.483,1014.11C52.483,1008.24 52.63,1005.71 53.423,1004.34C54.217,1002.96 56.329,1001.58 61.414,998.641L85.329,984.836ZM50,988.487C46.694,988.487 44.012,990.031 44.012,991.94C44.012,993.848 46.694,995.397 50,995.397C53.306,995.397 55.983,993.848 55.984,991.94C55.984,991.04 55.381,990.18 54.296,989.535C53.168,988.865 51.618,988.487 50,988.487ZM19.345,990.558C18.826,990.501 18.349,990.586 17.944,990.82C16.291,991.774 16.291,994.866 17.944,997.729C19.597,1000.59 22.275,1002.14 23.928,1001.19C25.58,1000.23 25.58,997.14 23.928,994.277C23.149,992.928 22.1,991.808 20.999,991.154C20.427,990.814 19.865,990.614 19.345,990.558ZM39.328,1002.12C38.83,1002.08 38.369,1002.16 37.98,1002.39C36.327,1003.34 36.327,1006.44 37.98,1009.3C39.632,1012.16 42.315,1013.71 43.968,1012.76C45.621,1011.8 45.621,1008.71 43.968,1005.85C43.159,1004.45 42.057,1003.29 40.913,1002.65C40.363,1002.34 39.825,1002.17 39.328,1002.12ZM29.363,1007.91C28.844,1007.86 28.366,1007.94 27.962,1008.17C26.309,1009.13 26.309,1012.22 27.962,1015.08C29.615,1017.95 32.292,1019.5 33.945,1018.54C35.598,1017.59 35.598,1014.49 33.945,1011.63C33.167,1010.28 32.118,1009.16 31.017,1008.51C30.445,1008.17 29.883,1007.97 29.363,1007.91ZM70.637,1007.91C70.117,1007.97 69.555,1008.17 68.983,1008.51C67.882,1009.16 66.833,1010.28 66.055,1011.63C64.402,1014.49 64.402,1017.59 66.055,1018.54C67.707,1019.5 70.385,1017.95 72.038,1015.09C73.691,1012.23 73.691,1009.13 72.038,1008.17C71.634,1007.94 71.156,1007.86 70.637,1007.91ZM19.287,1013.69C18.789,1013.65 18.333,1013.74 17.944,1013.96C16.291,1014.92 16.291,1018.01 17.944,1020.87C19.597,1023.74 22.275,1025.28 23.928,1024.33C25.58,1023.38 25.58,1020.28 23.928,1017.42C23.119,1016.01 22.017,1014.86 20.873,1014.22C20.322,1013.91 19.785,1013.74 19.287,1013.69ZM39.381,1025.27C38.861,1025.21 38.384,1025.3 37.98,1025.53C36.327,1026.49 36.327,1029.58 37.98,1032.44C39.632,1035.31 42.315,1036.85 43.968,1035.9C45.621,1034.94 45.621,1031.85 43.968,1028.99C43.19,1027.64 42.136,1026.52 41.034,1025.86C40.462,1025.52 39.9,1025.32 39.381,1025.27Z"/>
                </g>
            </g>
        </g>
    </g>
</svg>
