<?xml version="1.0" encoding="UTF-8" standalone="no"?>
<!DOCTYPE svg PUBLIC "-//W3C//DTD SVG 1.1//EN" "http://www.w3.org/Graphics/SVG/1.1/DTD/svg11.dtd">
<svg width="100%" height="100%" viewBox="0 0 2260 860" version="1.1" xmlns="http://www.w3.org/2000/svg" xmlns:xlink="http://www.w3.org/1999/xlink" xml:space="preserve" xmlns:serif="http://www.serif.com/" style="fill-rule:evenodd;clip-rule:evenodd;stroke-linejoin:round;stroke-miterlimit:1.41421;">
    <g id="APOLO">
        <g transform="matrix(13.0163,0,0,1.52671,-3.12639e-13,-7.63357)">
            <rect x="0" y="5" width="173.629" height="563.301" style="fill:rgb(17,17,17);"/>
        </g>
        <g id="Nave" transform="matrix(1.4263,0,0,1.4263,-491.814,-565.698)">
            <g id="Nave1" serif:id="Nave">
                <g>
                    <g transform="matrix(0.49082,0,0,0.191531,734.088,396.862)">
                        <rect x="723.801" y="556.269" width="20.723" height="12.27" style="fill:white;"/>
                    </g>
                    <g transform="matrix(0.49082,0,0,0.191531,748.188,396.862)">
                        <rect x="723.801" y="556.269" width="20.723" height="12.27" style="fill:white;"/>
                    </g>
                    <g transform="matrix(0.49082,0,0,0.191531,762.288,396.862)">
                        <rect x="723.801" y="556.269" width="20.723" height="12.27" style="fill:white;"/>
                    </g>
                    <g transform="matrix(0.49082,0,0,0.191531,776.388,396.862)">
                        <rect x="723.801" y="556.269" width="20.723" height="12.27" style="fill:white;"/>
                    </g>
                    <g transform="matrix(0.49082,0,0,0.191531,790.488,396.862)">
                        <rect x="723.801" y="556.269" width="20.723" height="12.27" style="fill:white;"/>
                    </g>
                    <g transform="matrix(0.49082,0,0,0.191531,804.588,396.862)">
                        <rect x="723.801" y="556.269" width="20.723" height="12.27" style="fill:white;"/>
                    </g>
                    <g transform="matrix(0.49082,0,0,0.191531,818.688,396.862)">
                        <rect x="723.801" y="556.269" width="20.723" height="12.27" style="fill:white;"/>
                    </g>
                </g>
                <g transform="matrix(1,0,0,1,0,28.4461)">
                    <g transform="matrix(0.49082,0,0,0.191531,734.088,396.862)">
                        <rect x="723.801" y="556.269" width="20.723" height="12.27" style="fill:white;"/>
                    </g>
                    <g transform="matrix(0.49082,0,0,0.191531,748.188,396.862)">
                        <rect x="723.801" y="556.269" width="20.723" height="12.27" style="fill:white;"/>
                    </g>
                    <g transform="matrix(0.49082,0,0,0.191531,762.288,396.862)">
                        <rect x="723.801" y="556.269" width="20.723" height="12.27" style="fill:white;"/>
                    </g>
                    <g transform="matrix(0.49082,0,0,0.191531,776.388,396.862)">
                        <rect x="723.801" y="556.269" width="20.723" height="12.27" style="fill:white;"/>
                    </g>
                    <g transform="matrix(0.49082,0,0,0.191531,790.488,396.862)">
                        <rect x="723.801" y="556.269" width="20.723" height="12.27" style="fill:white;"/>
                    </g>
                    <g transform="matrix(0.49082,0,0,0.191531,804.588,396.862)">
                        <rect x="723.801" y="556.269" width="20.723" height="12.27" style="fill:white;"/>
                    </g>
                    <g transform="matrix(0.49082,0,0,0.191531,818.688,396.862)">
                        <rect x="723.801" y="556.269" width="20.723" height="12.27" style="fill:white;"/>
                    </g>
                </g>
                <g transform="matrix(1,0,0,1,0,56.8922)">
                    <g transform="matrix(0.49082,0,0,0.191531,734.088,396.862)">
                        <rect x="723.801" y="556.269" width="20.723" height="12.27" style="fill:white;"/>
                    </g>
                    <g transform="matrix(0.49082,0,0,0.191531,748.188,396.862)">
                        <rect x="723.801" y="556.269" width="20.723" height="12.27" style="fill:white;"/>
                    </g>
                    <g transform="matrix(0.49082,0,0,0.191531,762.288,396.862)">
                        <rect x="723.801" y="556.269" width="20.723" height="12.27" style="fill:white;"/>
                    </g>
                    <g transform="matrix(0.49082,0,0,0.191531,776.388,396.862)">
                        <rect x="723.801" y="556.269" width="20.723" height="12.27" style="fill:white;"/>
                    </g>
                    <g transform="matrix(0.49082,0,0,0.191531,790.488,396.862)">
                        <rect x="723.801" y="556.269" width="20.723" height="12.27" style="fill:white;"/>
                    </g>
                    <g transform="matrix(0.49082,0,0,0.191531,804.588,396.862)">
                        <rect x="723.801" y="556.269" width="20.723" height="12.27" style="fill:white;"/>
                    </g>
                    <g transform="matrix(0.49082,0,0,0.191531,818.688,396.862)">
                        <rect x="723.801" y="556.269" width="20.723" height="12.27" style="fill:white;"/>
                    </g>
                </g>
                <g transform="matrix(1,0,0,1,0,85.3383)">
                    <g transform="matrix(0.49082,0,0,0.191531,748.188,396.862)">
                        <rect x="723.801" y="556.269" width="20.723" height="12.27" style="fill:white;"/>
                    </g>
                    <g transform="matrix(0.49082,0,0,0.191531,762.288,396.862)">
                        <rect x="723.801" y="556.269" width="20.723" height="12.27" style="fill:white;"/>
                    </g>
                    <g transform="matrix(0.49082,0,0,0.191531,776.388,396.862)">
                        <rect x="723.801" y="556.269" width="20.723" height="12.27" style="fill:white;"/>
                    </g>
                    <g transform="matrix(0.49082,0,0,0.191531,790.488,396.862)">
                        <rect x="723.801" y="556.269" width="20.723" height="12.27" style="fill:white;"/>
                    </g>
                    <g transform="matrix(0.49082,0,0,0.191531,804.588,396.862)">
                        <rect x="723.801" y="556.269" width="20.723" height="12.27" style="fill:white;"/>
                    </g>
                </g>
                <g transform="matrix(1,0,0,1,-14.1,114.458)">
                    <g transform="matrix(0.49082,0,0,0.191531,748.188,396.862)">
                        <rect x="723.801" y="556.269" width="20.723" height="12.27" style="fill:white;"/>
                    </g>
                    <g transform="matrix(0.49082,0,0,0.191531,762.288,396.862)">
                        <rect x="723.801" y="556.269" width="20.723" height="12.27" style="fill:white;"/>
                    </g>
                </g>
                <g transform="matrix(1,0,0,1,56.3684,114.458)">
                    <g transform="matrix(0.49082,0,0,0.191531,748.188,396.862)">
                        <rect x="723.801" y="556.269" width="20.723" height="12.27" style="fill:white;"/>
                    </g>
                    <g transform="matrix(0.49082,0,0,0.191531,762.288,396.862)">
                        <rect x="723.801" y="556.269" width="20.723" height="12.27" style="fill:white;"/>
                    </g>
                </g>
            </g>
            <g>
                <g>
                    <g transform="matrix(1,0,0,1,-127.764,114.458)">
                        <g transform="matrix(0.49082,0,0,0.191531,734.088,396.862)">
                            <rect x="723.801" y="556.269" width="20.723" height="12.27" style="fill:white;"/>
                        </g>
                        <g transform="matrix(0.49082,0,0,0.191531,748.188,396.862)">
                            <rect x="723.801" y="556.269" width="20.723" height="12.27" style="fill:white;"/>
                        </g>
                        <g transform="matrix(0.49082,0,0,0.191531,762.288,396.862)">
                            <rect x="723.801" y="556.269" width="20.723" height="12.27" style="fill:white;"/>
                        </g>
                        <g transform="matrix(0.49082,0,0,0.191531,776.388,396.862)">
                            <rect x="723.801" y="556.269" width="20.723" height="12.27" style="fill:white;"/>
                        </g>
                        <g transform="matrix(0.49082,0,0,0.191531,790.488,396.862)">
                            <rect x="723.801" y="556.269" width="20.723" height="12.27" style="fill:white;"/>
                        </g>
                        <g transform="matrix(0.49082,0,0,0.191531,804.588,396.862)">
                            <rect x="723.801" y="556.269" width="20.723" height="12.27" style="fill:white;"/>
                        </g>
                        <g transform="matrix(0.49082,0,0,0.191531,818.688,396.862)">
                            <rect x="723.801" y="556.269" width="20.723" height="12.27" style="fill:white;"/>
                        </g>
                    </g>
                    <g transform="matrix(1,0,0,1,-227.865,114.458)">
                        <g transform="matrix(0.49082,0,0,0.191531,734.088,396.862)">
                            <rect x="723.801" y="556.269" width="20.723" height="12.27" style="fill:white;"/>
                        </g>
                        <g transform="matrix(0.49082,0,0,0.191531,748.188,396.862)">
                            <rect x="723.801" y="556.269" width="20.723" height="12.27" style="fill:white;"/>
                        </g>
                        <g transform="matrix(0.49082,0,0,0.191531,762.288,396.862)">
                            <rect x="723.801" y="556.269" width="20.723" height="12.27" style="fill:white;"/>
                        </g>
                        <g transform="matrix(0.49082,0,0,0.191531,776.388,396.862)">
                            <rect x="723.801" y="556.269" width="20.723" height="12.27" style="fill:white;"/>
                        </g>
                        <g transform="matrix(0.49082,0,0,0.191531,790.488,396.862)">
                            <rect x="723.801" y="556.269" width="20.723" height="12.27" style="fill:white;"/>
                        </g>
                        <g transform="matrix(0.49082,0,0,0.191531,804.588,396.862)">
                            <rect x="723.801" y="556.269" width="20.723" height="12.27" style="fill:white;"/>
                        </g>
                        <g transform="matrix(0.49082,0,0,0.191531,818.688,396.862)">
                            <rect x="723.801" y="556.269" width="20.723" height="12.27" style="fill:white;"/>
                        </g>
                    </g>
                    <g transform="matrix(1,0,0,1,-327.967,114.458)">
                        <g transform="matrix(0.49082,0,0,0.191531,734.088,396.862)">
                            <rect x="723.801" y="556.269" width="20.723" height="12.27" style="fill:white;"/>
                        </g>
                        <g transform="matrix(0.49082,0,0,0.191531,748.188,396.862)">
                            <rect x="723.801" y="556.269" width="20.723" height="12.27" style="fill:white;"/>
                        </g>
                        <g transform="matrix(0.49082,0,0,0.191531,762.288,396.862)">
                            <rect x="723.801" y="556.269" width="20.723" height="12.27" style="fill:white;"/>
                        </g>
                        <g transform="matrix(0.49082,0,0,0.191531,776.388,396.862)">
                            <rect x="723.801" y="556.269" width="20.723" height="12.27" style="fill:white;"/>
                        </g>
                        <g transform="matrix(0.49082,0,0,0.191531,790.488,396.862)">
                            <rect x="723.801" y="556.269" width="20.723" height="12.27" style="fill:white;"/>
                        </g>
                        <g transform="matrix(0.49082,0,0,0.191531,804.588,396.862)">
                            <rect x="723.801" y="556.269" width="20.723" height="12.27" style="fill:white;"/>
                        </g>
                        <g transform="matrix(0.49082,0,0,0.191531,818.688,396.862)">
                            <rect x="723.801" y="556.269" width="20.723" height="12.27" style="fill:white;"/>
                        </g>
                    </g>
                    <g transform="matrix(1,0,0,1,-428.068,114.458)">
                        <g transform="matrix(0.49082,0,0,0.191531,734.088,396.862)">
                            <rect x="723.801" y="556.269" width="20.723" height="12.27" style="fill:white;"/>
                        </g>
                        <g transform="matrix(0.49082,0,0,0.191531,748.188,396.862)">
                            <rect x="723.801" y="556.269" width="20.723" height="12.27" style="fill:white;"/>
                        </g>
                        <g transform="matrix(0.49082,0,0,0.191531,762.288,396.862)">
                            <rect x="723.801" y="556.269" width="20.723" height="12.27" style="fill:white;"/>
                        </g>
                        <g transform="matrix(0.49082,0,0,0.191531,776.388,396.862)">
                            <rect x="723.801" y="556.269" width="20.723" height="12.27" style="fill:white;"/>
                        </g>
                        <g transform="matrix(0.49082,0,0,0.191531,790.488,396.862)">
                            <rect x="723.801" y="556.269" width="20.723" height="12.27" style="fill:white;"/>
                        </g>
                        <g transform="matrix(0.49082,0,0,0.191531,804.588,396.862)">
                            <rect x="723.801" y="556.269" width="20.723" height="12.27" style="fill:white;"/>
                        </g>
                        <g transform="matrix(0.49082,0,0,0.191531,818.688,396.862)">
                            <rect x="723.801" y="556.269" width="20.723" height="12.27" style="fill:white;"/>
                        </g>
                    </g>
                    <g transform="matrix(1,0,0,1,-528.17,114.458)">
                        <g transform="matrix(0.49082,0,0,0.191531,734.088,396.862)">
                            <rect x="723.801" y="556.269" width="20.723" height="12.27" style="fill:white;"/>
                        </g>
                        <g transform="matrix(0.49082,0,0,0.191531,748.188,396.862)">
                            <rect x="723.801" y="556.269" width="20.723" height="12.27" style="fill:white;"/>
                        </g>
                        <g transform="matrix(0.49082,0,0,0.191531,762.288,396.862)">
                            <rect x="723.801" y="556.269" width="20.723" height="12.27" style="fill:white;"/>
                        </g>
                        <g transform="matrix(0.49082,0,0,0.191531,776.388,396.862)">
                            <rect x="723.801" y="556.269" width="20.723" height="12.27" style="fill:white;"/>
                        </g>
                        <g transform="matrix(0.49082,0,0,0.191531,790.488,396.862)">
                            <rect x="723.801" y="556.269" width="20.723" height="12.27" style="fill:white;"/>
                        </g>
                        <g transform="matrix(0.49082,0,0,0.191531,804.588,396.862)">
                            <rect x="723.801" y="556.269" width="20.723" height="12.27" style="fill:white;"/>
                        </g>
                        <g transform="matrix(0.49082,0,0,0.191531,818.688,396.862)">
                            <rect x="723.801" y="556.269" width="20.723" height="12.27" style="fill:white;"/>
                        </g>
                    </g>
                </g>
                <g transform="matrix(1,0,0,1,656.625,0)">
                    <g transform="matrix(1,0,0,1,-127.764,114.458)">
                        <g transform="matrix(0.49082,0,0,0.191531,734.088,396.862)">
                            <rect x="723.801" y="556.269" width="20.723" height="12.27" style="fill:white;"/>
                        </g>
                        <g transform="matrix(0.49082,0,0,0.191531,748.188,396.862)">
                            <rect x="723.801" y="556.269" width="20.723" height="12.27" style="fill:white;"/>
                        </g>
                        <g transform="matrix(0.49082,0,0,0.191531,762.288,396.862)">
                            <rect x="723.801" y="556.269" width="20.723" height="12.27" style="fill:white;"/>
                        </g>
                        <g transform="matrix(0.49082,0,0,0.191531,776.388,396.862)">
                            <rect x="723.801" y="556.269" width="20.723" height="12.27" style="fill:white;"/>
                        </g>
                        <g transform="matrix(0.49082,0,0,0.191531,790.488,396.862)">
                            <rect x="723.801" y="556.269" width="20.723" height="12.27" style="fill:white;"/>
                        </g>
                        <g transform="matrix(0.49082,0,0,0.191531,804.588,396.862)">
                            <rect x="723.801" y="556.269" width="20.723" height="12.27" style="fill:white;"/>
                        </g>
                        <g transform="matrix(0.49082,0,0,0.191531,818.688,396.862)">
                            <rect x="723.801" y="556.269" width="20.723" height="12.27" style="fill:white;"/>
                        </g>
                    </g>
                    <g transform="matrix(1,0,0,1,-227.865,114.458)">
                        <g transform="matrix(0.49082,0,0,0.191531,734.088,396.862)">
                            <rect x="723.801" y="556.269" width="20.723" height="12.27" style="fill:white;"/>
                        </g>
                        <g transform="matrix(0.49082,0,0,0.191531,748.188,396.862)">
                            <rect x="723.801" y="556.269" width="20.723" height="12.27" style="fill:white;"/>
                        </g>
                        <g transform="matrix(0.49082,0,0,0.191531,762.288,396.862)">
                            <rect x="723.801" y="556.269" width="20.723" height="12.27" style="fill:white;"/>
                        </g>
                        <g transform="matrix(0.49082,0,0,0.191531,776.388,396.862)">
                            <rect x="723.801" y="556.269" width="20.723" height="12.27" style="fill:white;"/>
                        </g>
                        <g transform="matrix(0.49082,0,0,0.191531,790.488,396.862)">
                            <rect x="723.801" y="556.269" width="20.723" height="12.27" style="fill:white;"/>
                        </g>
                        <g transform="matrix(0.49082,0,0,0.191531,804.588,396.862)">
                            <rect x="723.801" y="556.269" width="20.723" height="12.27" style="fill:white;"/>
                        </g>
                        <g transform="matrix(0.49082,0,0,0.191531,818.688,396.862)">
                            <rect x="723.801" y="556.269" width="20.723" height="12.27" style="fill:white;"/>
                        </g>
                    </g>
                    <g transform="matrix(1,0,0,1,-327.967,114.458)">
                        <g transform="matrix(0.49082,0,0,0.191531,734.088,396.862)">
                            <rect x="723.801" y="556.269" width="20.723" height="12.27" style="fill:white;"/>
                        </g>
                        <g transform="matrix(0.49082,0,0,0.191531,748.188,396.862)">
                            <rect x="723.801" y="556.269" width="20.723" height="12.27" style="fill:white;"/>
                        </g>
                        <g transform="matrix(0.49082,0,0,0.191531,762.288,396.862)">
                            <rect x="723.801" y="556.269" width="20.723" height="12.27" style="fill:white;"/>
                        </g>
                        <g transform="matrix(0.49082,0,0,0.191531,776.388,396.862)">
                            <rect x="723.801" y="556.269" width="20.723" height="12.27" style="fill:white;"/>
                        </g>
                        <g transform="matrix(0.49082,0,0,0.191531,790.488,396.862)">
                            <rect x="723.801" y="556.269" width="20.723" height="12.27" style="fill:white;"/>
                        </g>
                        <g transform="matrix(0.49082,0,0,0.191531,804.588,396.862)">
                            <rect x="723.801" y="556.269" width="20.723" height="12.27" style="fill:white;"/>
                        </g>
                        <g transform="matrix(0.49082,0,0,0.191531,818.688,396.862)">
                            <rect x="723.801" y="556.269" width="20.723" height="12.27" style="fill:white;"/>
                        </g>
                    </g>
                    <g transform="matrix(1,0,0,1,-428.068,114.458)">
                        <g transform="matrix(0.49082,0,0,0.191531,734.088,396.862)">
                            <rect x="723.801" y="556.269" width="20.723" height="12.27" style="fill:white;"/>
                        </g>
                        <g transform="matrix(0.49082,0,0,0.191531,748.188,396.862)">
                            <rect x="723.801" y="556.269" width="20.723" height="12.27" style="fill:white;"/>
                        </g>
                        <g transform="matrix(0.49082,0,0,0.191531,762.288,396.862)">
                            <rect x="723.801" y="556.269" width="20.723" height="12.27" style="fill:white;"/>
                        </g>
                        <g transform="matrix(0.49082,0,0,0.191531,776.388,396.862)">
                            <rect x="723.801" y="556.269" width="20.723" height="12.27" style="fill:white;"/>
                        </g>
                        <g transform="matrix(0.49082,0,0,0.191531,790.488,396.862)">
                            <rect x="723.801" y="556.269" width="20.723" height="12.27" style="fill:white;"/>
                        </g>
                        <g transform="matrix(0.49082,0,0,0.191531,804.588,396.862)">
                            <rect x="723.801" y="556.269" width="20.723" height="12.27" style="fill:white;"/>
                        </g>
                        <g transform="matrix(0.49082,0,0,0.191531,818.688,396.862)">
                            <rect x="723.801" y="556.269" width="20.723" height="12.27" style="fill:white;"/>
                        </g>
                    </g>
                    <g transform="matrix(1,0,0,1,-528.17,114.458)">
                        <g transform="matrix(0.49082,0,0,0.191531,734.088,396.862)">
                            <rect x="723.801" y="556.269" width="20.723" height="12.27" style="fill:white;"/>
                        </g>
                        <g transform="matrix(0.49082,0,0,0.191531,748.188,396.862)">
                            <rect x="723.801" y="556.269" width="20.723" height="12.27" style="fill:white;"/>
                        </g>
                        <g transform="matrix(0.49082,0,0,0.191531,762.288,396.862)">
                            <rect x="723.801" y="556.269" width="20.723" height="12.27" style="fill:white;"/>
                        </g>
                        <g transform="matrix(0.49082,0,0,0.191531,776.388,396.862)">
                            <rect x="723.801" y="556.269" width="20.723" height="12.27" style="fill:white;"/>
                        </g>
                        <g transform="matrix(0.49082,0,0,0.191531,790.488,396.862)">
                            <rect x="723.801" y="556.269" width="20.723" height="12.27" style="fill:white;"/>
                        </g>
                        <g transform="matrix(0.49082,0,0,0.191531,804.588,396.862)">
                            <rect x="723.801" y="556.269" width="20.723" height="12.27" style="fill:white;"/>
                        </g>
                        <g transform="matrix(0.49082,0,0,0.191531,818.688,396.862)">
                            <rect x="723.801" y="556.269" width="20.723" height="12.27" style="fill:white;"/>
                        </g>
                    </g>
                </g>
            </g>
            <g transform="matrix(1,0,0,1,-5,29)">
                <g transform="matrix(1,0,0,1,1,0)">
                    <g transform="matrix(1,0,0,1,-127.764,114.458)">
                        <g transform="matrix(0.49082,0,0,0.191531,762.288,396.862)">
                            <rect x="723.801" y="556.269" width="20.723" height="12.27" style="fill:white;"/>
                        </g>
                        <g transform="matrix(0.49082,0,0,0.191531,776.388,396.862)">
                            <rect x="723.801" y="556.269" width="20.723" height="12.27" style="fill:white;"/>
                        </g>
                        <g transform="matrix(0.49082,0,0,0.191531,790.488,396.862)">
                            <rect x="723.801" y="556.269" width="20.723" height="12.27" style="fill:white;"/>
                        </g>
                        <g transform="matrix(0.49082,0,0,0.191531,804.588,396.862)">
                            <rect x="723.801" y="556.269" width="20.723" height="12.27" style="fill:white;"/>
                        </g>
                    </g>
                    <g transform="matrix(1,0,0,1,-227.865,114.458)">
                        <g transform="matrix(0.49082,0,0,0.191531,734.088,396.862)">
                            <rect x="723.801" y="556.269" width="20.723" height="12.27" style="fill:white;"/>
                        </g>
                        <g transform="matrix(0.49082,0,0,0.191531,748.188,396.862)">
                            <rect x="723.801" y="556.269" width="20.723" height="12.27" style="fill:white;"/>
                        </g>
                    </g>
                    <g transform="matrix(0.49082,0,0,0.191531,406.121,511.32)">
                        <g>
                            <rect x="723.801" y="556.269" width="20.723" height="12.27" style="fill:white;"/>
                        </g>
                    </g>
                    <g transform="matrix(1,0,0,1,-428.068,114.458)">
                        <g transform="matrix(0.49082,0,0,0.191531,748.188,396.862)">
                            <rect x="723.801" y="556.269" width="20.723" height="12.27" style="fill:white;"/>
                        </g>
                        <g transform="matrix(0.49082,0,0,0.191531,762.288,396.862)">
                            <rect x="723.801" y="556.269" width="20.723" height="12.27" style="fill:white;"/>
                        </g>
                        <g transform="matrix(0.49082,0,0,0.191531,804.588,396.862)">
                            <rect x="723.801" y="556.269" width="20.723" height="12.27" style="fill:white;"/>
                        </g>
                        <g transform="matrix(0.49082,0,0,0.191531,818.688,396.862)">
                            <rect x="723.801" y="556.269" width="20.723" height="12.27" style="fill:white;"/>
                        </g>
                    </g>
                </g>
                <g transform="matrix(1,0,0,1,661.625,0)">
                    <g transform="matrix(1,0,0,1,-127.764,114.458)">
                        <g transform="matrix(0.49082,0,0,0.191531,734.088,396.862)">
                            <rect x="723.801" y="556.269" width="20.723" height="12.27" style="fill:white;"/>
                        </g>
                        <g transform="matrix(0.49082,0,0,0.191531,748.188,396.862)">
                            <rect x="723.801" y="556.269" width="20.723" height="12.27" style="fill:white;"/>
                        </g>
                        <g transform="matrix(0.49082,0,0,0.191531,762.288,396.862)">
                            <rect x="723.801" y="556.269" width="20.723" height="12.27" style="fill:white;"/>
                        </g>
                    </g>
                    <g transform="matrix(0.49082,0,0,0.191531,590.823,511.32)">
                        <g>
                            <rect x="723.801" y="556.269" width="20.723" height="12.27" style="fill:white;"/>
                        </g>
                    </g>
                    <g transform="matrix(1,0,0,1,-327.967,114.458)">
                        <g transform="matrix(0.49082,0,0,0.191531,748.188,396.862)">
                            <rect x="723.801" y="556.269" width="20.723" height="12.27" style="fill:white;"/>
                        </g>
                        <g transform="matrix(0.49082,0,0,0.191531,762.288,396.862)">
                            <rect x="723.801" y="556.269" width="20.723" height="12.27" style="fill:white;"/>
                        </g>
                    </g>
                    <g transform="matrix(1,0,0,1,-528.17,114.458)">
                        <g transform="matrix(0.49082,0,0,0.191531,790.488,396.862)">
                            <rect x="723.801" y="556.269" width="20.723" height="12.27" style="fill:white;"/>
                        </g>
                        <g transform="matrix(0.49082,0,0,0.191531,804.588,396.862)">
                            <rect x="723.801" y="556.269" width="20.723" height="12.27" style="fill:white;"/>
                        </g>
                    </g>
                </g>
            </g>
            <g transform="matrix(1,0,0,1,-2,57)">
                <g>
                    <g transform="matrix(1,0,0,1,-127.764,114.458)">
                        <g transform="matrix(0.49082,0,0,0.191531,776.388,396.862)">
                            <rect x="723.801" y="556.269" width="20.723" height="12.27" style="fill:white;"/>
                        </g>
                        <g transform="matrix(0.49082,0,0,0.191531,790.488,396.862)">
                            <rect x="723.801" y="556.269" width="20.723" height="12.27" style="fill:white;"/>
                        </g>
                    </g>
                    <g transform="matrix(1,0,0,1,-227.865,114.458)">
                        <g transform="matrix(0.49082,0,0,0.191531,804.588,396.862)">
                            <rect x="723.801" y="556.269" width="20.723" height="12.27" style="fill:white;"/>
                        </g>
                        <g transform="matrix(0.49082,0,0,0.191531,818.688,396.862)">
                            <rect x="723.801" y="556.269" width="20.723" height="12.27" style="fill:white;"/>
                        </g>
                    </g>
                    <g transform="matrix(1,0,0,1,-327.967,114.458)">
                        <g transform="matrix(0.49082,0,0,0.191531,734.088,396.862)">
                            <rect x="723.801" y="556.269" width="20.723" height="12.27" style="fill:white;"/>
                        </g>
                        <g transform="matrix(0.49082,0,0,0.191531,748.188,396.862)">
                            <rect x="723.801" y="556.269" width="20.723" height="12.27" style="fill:white;"/>
                        </g>
                    </g>
                    <g transform="matrix(1,0,0,1,-428.068,114.458)">
                        <g transform="matrix(0.49082,0,0,0.191531,734.088,396.862)">
                            <rect x="723.801" y="556.269" width="20.723" height="12.27" style="fill:white;"/>
                        </g>
                        <g transform="matrix(0.49082,0,0,0.191531,818.688,396.862)">
                            <rect x="723.801" y="556.269" width="20.723" height="12.27" style="fill:white;"/>
                        </g>
                    </g>
                </g>
                <g transform="matrix(1,0,0,1,616.625,0)">
                    <g transform="matrix(0.49082,0,0,0.191531,606.325,511.32)">
                        <g>
                            <rect x="723.801" y="556.269" width="20.723" height="12.27" style="fill:white;"/>
                        </g>
                    </g>
                    <g transform="matrix(0.49082,0,0,0.191531,506.223,511.32)">
                        <g>
                            <rect x="723.801" y="556.269" width="20.723" height="12.27" style="fill:white;"/>
                        </g>
                    </g>
                    <g transform="matrix(1,0,0,1,-327.967,114.458)">
                        <g transform="matrix(0.49082,0,0,0.191531,734.088,396.862)">
                            <rect x="723.801" y="556.269" width="20.723" height="12.27" style="fill:white;"/>
                        </g>
                        <g transform="matrix(0.49082,0,0,0.191531,804.588,396.862)">
                            <rect x="723.801" y="556.269" width="20.723" height="12.27" style="fill:white;"/>
                        </g>
                        <g transform="matrix(0.49082,0,0,0.191531,818.688,396.862)">
                            <rect x="723.801" y="556.269" width="20.723" height="12.27" style="fill:white;"/>
                        </g>
                    </g>
                    <g transform="matrix(0.49082,0,0,0.191531,390.62,511.32)">
                        <g>
                            <rect x="723.801" y="556.269" width="20.723" height="12.27" style="fill:white;"/>
                        </g>
                    </g>
                    <g transform="matrix(1,0,0,1,-528.17,114.458)">
                        <g transform="matrix(0.49082,0,0,0.191531,734.088,396.862)">
                            <rect x="723.801" y="556.269" width="20.723" height="12.27" style="fill:white;"/>
                        </g>
                        <g transform="matrix(0.49082,0,0,0.191531,748.188,396.862)">
                            <rect x="723.801" y="556.269" width="20.723" height="12.27" style="fill:white;"/>
                        </g>
                        <g transform="matrix(0.49082,0,0,0.191531,762.288,396.862)">
                            <rect x="723.801" y="556.269" width="20.723" height="12.27" style="fill:white;"/>
                        </g>
                    </g>
                    <g transform="matrix(0.49082,0,0,0.191531,332.095,511.32)">
                        <g>
                            <rect x="723.801" y="556.269" width="20.723" height="12.27" style="fill:white;"/>
                        </g>
                    </g>
                </g>
            </g>
        </g>
    </g>
</svg>
